<svg width="128" height="42" viewBox="0 0 128 42" fill="none" xmlns="http://www.w3.org/2000/svg">
<path d="M62.1204 31.5665L69.4437 41.0471H127.792L120.473 31.5665H62.1204Z" fill="#1B3A66"/>
<path d="M77.4683 36.2173C77.4683 36.4425 77.4414 36.6401 77.3874 36.8147C77.3335 36.9894 77.2615 37.1456 77.1671 37.2789C77.0727 37.4122 76.9693 37.527 76.8479 37.6236C76.7266 37.7201 76.6007 37.7982 76.4703 37.8579C76.3399 37.9177 76.2051 37.9636 76.0702 37.9912C75.9353 38.0188 75.8095 38.0326 75.6926 38.0326H73.5212V37.0537H75.6926C75.8139 37.0445 75.9263 37.0169 76.0252 36.9756C76.1241 36.9342 76.2096 36.8791 76.2815 36.8056C76.3534 36.7366 76.4074 36.6493 76.4478 36.5528C76.4883 36.4517 76.5063 36.3414 76.5063 36.2173V35.7716C76.4928 35.6475 76.4658 35.5372 76.4298 35.4315C76.3894 35.3304 76.3354 35.2385 76.268 35.165C76.2006 35.0914 76.1197 35.0363 76.0208 34.9949C75.9263 34.9536 75.814 34.9306 75.6881 34.9306H73.5257C73.3953 34.9306 73.3009 34.9628 73.2335 35.0317C73.166 35.1006 73.1346 35.1971 73.1346 35.3258V39.3561H72.177V35.3258C72.177 35.073 72.222 34.8617 72.3119 34.6824C72.4018 34.5078 72.5142 34.3653 72.649 34.255C72.7839 34.1493 72.9278 34.0666 73.0851 34.0207C73.2425 33.9701 73.3863 33.9471 73.5212 33.9471H75.6926C75.9084 33.9471 76.1017 33.9747 76.277 34.0299C76.4478 34.085 76.6007 34.1631 76.7311 34.255C76.8614 34.347 76.9738 34.4572 77.0682 34.5813C77.1626 34.7054 77.2346 34.8341 77.2975 34.9673C77.3604 35.1006 77.4009 35.2385 77.4279 35.3763C77.4548 35.5142 77.4683 35.6429 77.4683 35.7624V36.2081V36.2173Z" fill="white"/>
<path d="M83.7667 33.9562L81.2627 39.1721C81.2222 39.2548 81.1638 39.3191 81.0874 39.3651C81.0109 39.4156 80.9255 39.4386 80.8311 39.4386C80.7367 39.4386 80.6558 39.4156 80.5794 39.3651C80.5029 39.3145 80.44 39.2502 80.3995 39.1721L77.9 33.9562H78.9744L80.8311 37.8532L82.6968 33.9562H83.7667Z" fill="white"/>
<path d="M89.2154 39.3652H85.7538C85.6639 39.3652 85.5695 39.356 85.4661 39.333C85.3627 39.31 85.2638 39.2779 85.1648 39.2319C85.0659 39.186 84.9715 39.1262 84.8816 39.0573C84.7917 38.9837 84.7108 38.901 84.6389 38.7953C84.5669 38.6942 84.513 38.5747 84.468 38.4415C84.4276 38.3082 84.4051 38.1566 84.4051 37.9865V35.3303C84.4051 35.2384 84.4141 35.1419 84.4366 35.0362C84.4545 34.9305 84.4905 34.8294 84.5355 34.7283C84.5804 34.6272 84.6389 34.5307 84.7063 34.4342C84.7782 34.3423 84.8636 34.2596 84.9625 34.186C85.0615 34.1125 85.1783 34.0574 85.3087 34.016C85.4391 33.9746 85.5874 33.9517 85.7538 33.9517H89.2154V34.9305H85.7538C85.6279 34.9305 85.5335 34.9627 85.4661 35.0316C85.3986 35.1005 85.3672 35.2016 85.3672 35.3349V37.9819C85.3672 38.106 85.4031 38.2071 85.4705 38.276C85.538 38.345 85.6324 38.3817 85.7583 38.3817H89.2199V39.3606L89.2154 39.3652Z" fill="white"/>
<path d="M98.31 38.1749C98.31 38.2943 98.292 38.423 98.2516 38.5655C98.2111 38.7079 98.1437 38.832 98.0537 38.9515C97.9593 39.071 97.8425 39.1675 97.6941 39.2456C97.5457 39.3237 97.3659 39.3651 97.1501 39.3651H93.5087C93.4412 39.3651 93.3783 39.3513 93.3154 39.3283C93.2524 39.3054 93.203 39.2686 93.1625 39.2226C93.1221 39.1767 93.0861 39.1261 93.0636 39.0664C93.0411 39.0066 93.0276 38.9423 93.0276 38.8688V34.4479C93.0276 34.379 93.0411 34.3146 93.0636 34.2549C93.0861 34.1951 93.1221 34.14 93.1625 34.0986C93.203 34.0573 93.2569 34.0159 93.3154 33.9929C93.3738 33.97 93.4368 33.9562 93.5087 33.9562H96.7185C96.8354 33.9562 96.9613 33.9792 97.1007 34.0205C97.2355 34.0619 97.3614 34.1308 97.4783 34.2273C97.5952 34.3238 97.6896 34.4433 97.7705 34.595C97.8469 34.7466 97.8874 34.9304 97.8874 35.151V35.3348C97.8874 35.5095 97.8604 35.6933 97.802 35.8955C97.748 36.0931 97.6536 36.2861 97.5278 36.4653C97.6357 36.5343 97.7391 36.617 97.8335 36.7089C97.9279 36.8008 98.0088 36.9157 98.0807 37.0398C98.1526 37.1638 98.2066 37.3063 98.2516 37.4671C98.2965 37.628 98.3145 37.8026 98.3145 37.991V38.1795L98.31 38.1749ZM97.3524 37.9864C97.3524 37.8578 97.3344 37.7429 97.294 37.6418C97.2535 37.5407 97.1996 37.4534 97.1277 37.3798C97.0557 37.3063 96.9703 37.2512 96.8669 37.2098C96.7635 37.1684 96.6556 37.1501 96.5297 37.1501H94.3673V36.162H96.0982C96.224 36.162 96.3364 36.1436 96.4398 36.1023C96.5432 36.0609 96.6286 36.0058 96.6961 35.9322C96.768 35.8587 96.822 35.7714 96.8624 35.6703C96.8984 35.5692 96.9209 35.4543 96.9209 35.3256V35.1418C96.9209 34.9994 96.8534 34.9304 96.723 34.9304H93.9897V38.3771H97.1546C97.1546 38.3771 97.1906 38.3771 97.2176 38.3771C97.24 38.3771 97.2625 38.3679 97.285 38.3541C97.303 38.3403 97.321 38.3219 97.3389 38.2897C97.3524 38.2576 97.3614 38.2162 97.3614 38.1657V37.9864H97.3524Z" fill="white"/>
<path d="M103.606 37.9866C103.606 38.1566 103.583 38.3083 103.543 38.4415C103.502 38.5748 103.444 38.6943 103.377 38.7954C103.309 38.8965 103.228 38.9838 103.138 39.0573C103.048 39.1309 102.954 39.186 102.855 39.232C102.756 39.2779 102.653 39.3101 102.554 39.3331C102.45 39.356 102.356 39.3652 102.266 39.3652H100.535C100.405 39.3652 100.257 39.3423 100.099 39.2917C99.9419 39.2458 99.7936 39.1676 99.6632 39.0573C99.5283 38.947 99.4159 38.8046 99.326 38.63C99.2361 38.4553 99.1912 38.2393 99.1912 37.9866V36.6585C99.1912 36.4057 99.2361 36.1943 99.326 36.0197C99.4159 35.8451 99.5283 35.7026 99.6632 35.5923C99.7981 35.482 99.9419 35.4039 100.099 35.358C100.257 35.312 100.4 35.2844 100.535 35.2844H102.266C102.513 35.2844 102.72 35.3304 102.896 35.4223C103.066 35.5142 103.206 35.6245 103.314 35.7624C103.422 35.9002 103.498 36.0473 103.543 36.2081C103.588 36.369 103.615 36.5206 103.615 36.6585V37.9866H103.606ZM102.644 36.6677C102.644 36.5298 102.612 36.4333 102.545 36.3644C102.477 36.3 102.383 36.2679 102.257 36.2679H100.535C100.405 36.2679 100.311 36.3 100.243 36.369C100.176 36.4333 100.144 36.5344 100.144 36.6631V37.9912C100.144 38.1199 100.176 38.2164 100.243 38.2853C100.311 38.3542 100.405 38.3864 100.535 38.3864H102.257C102.388 38.3864 102.486 38.3542 102.549 38.2853C102.612 38.2164 102.644 38.1199 102.644 37.9912V36.6723V36.6677Z" fill="white"/>
<path d="M108.762 38.014C108.762 38.1519 108.74 38.2943 108.69 38.4552C108.641 38.616 108.569 38.7585 108.466 38.8917C108.362 39.025 108.223 39.1399 108.056 39.2272C107.886 39.3191 107.683 39.3651 107.441 39.3651H105.71C105.579 39.3651 105.431 39.3421 105.278 39.2915C105.125 39.2456 104.981 39.1675 104.851 39.0618C104.721 38.9561 104.608 38.8136 104.523 38.6436C104.433 38.4735 104.388 38.2622 104.388 38.014C104.388 37.8807 104.411 37.7291 104.46 37.5728C104.509 37.4166 104.581 37.2695 104.689 37.1317C104.797 36.9938 104.932 36.8835 105.098 36.7962C105.269 36.7043 105.472 36.6583 105.714 36.6583H107.445V37.5958H105.714C105.584 37.5958 105.48 37.6372 105.413 37.7199C105.341 37.8026 105.305 37.9037 105.305 38.0232C105.305 38.1519 105.346 38.253 105.431 38.3219C105.516 38.3908 105.611 38.4276 105.723 38.4276H107.445C107.575 38.4276 107.674 38.3862 107.746 38.3081C107.818 38.2254 107.854 38.1289 107.854 38.0048V36.6353C107.854 36.5067 107.814 36.4056 107.737 36.3274C107.661 36.2539 107.562 36.2126 107.445 36.2126H105.337V35.2797H107.445C107.575 35.2797 107.719 35.3026 107.877 35.3532C108.03 35.3991 108.173 35.4773 108.304 35.583C108.434 35.6887 108.547 35.8311 108.632 36.0012C108.722 36.1758 108.762 36.3826 108.762 36.6307V38.0094V38.014Z" fill="white"/>
<path d="M113.298 36.2678H111.14C111.01 36.2678 110.911 36.3 110.844 36.3689C110.776 36.4332 110.745 36.5343 110.745 36.663V39.3652H109.787V36.663C109.787 36.493 109.805 36.3459 109.85 36.2126C109.895 36.0794 109.949 35.9599 110.017 35.8588C110.084 35.7577 110.169 35.6704 110.259 35.5968C110.349 35.5233 110.444 35.4682 110.543 35.4222C110.641 35.3763 110.745 35.3441 110.844 35.3211C110.947 35.2981 111.042 35.2889 111.127 35.2889H113.294V36.2678H113.298Z" fill="white"/>
<path d="M118.518 37.9865C118.518 38.1566 118.495 38.3082 118.455 38.4415C118.414 38.5747 118.356 38.6942 118.288 38.7953C118.221 38.8964 118.14 38.9837 118.05 39.0573C117.96 39.1308 117.866 39.1859 117.767 39.2319C117.668 39.2779 117.565 39.31 117.466 39.333C117.362 39.356 117.268 39.3652 117.178 39.3652H115.447C115.281 39.3652 115.133 39.3422 115.002 39.3008C114.872 39.2595 114.759 39.1997 114.656 39.1308C114.557 39.0573 114.472 38.9791 114.4 38.8826C114.332 38.7907 114.274 38.6942 114.229 38.5885C114.184 38.4828 114.153 38.3817 114.13 38.2806C114.108 38.1749 114.099 38.0784 114.099 37.9865V36.6584C114.099 36.4057 114.144 36.1943 114.233 36.0196C114.323 35.845 114.436 35.7025 114.571 35.5923C114.705 35.482 114.849 35.4038 115.007 35.3579C115.164 35.3119 115.308 35.2844 115.443 35.2844H117.174V36.2632H115.452C115.321 36.2632 115.227 36.2954 115.16 36.3643C115.092 36.4286 115.061 36.5297 115.061 36.6584V37.9773C115.061 38.1106 115.092 38.2117 115.16 38.2806C115.227 38.3496 115.321 38.3817 115.447 38.3817H117.178C117.308 38.3817 117.407 38.3496 117.47 38.2806C117.533 38.2117 117.565 38.1152 117.565 37.9865V33.561H118.522V37.9865H118.518Z" fill="white"/>
<path d="M12.4843 14.9676C14.3949 14.3886 15.856 13.5568 16.8765 12.4723C17.8925 11.3877 18.405 10.055 18.405 8.46957C18.405 7.32989 18.1353 6.33726 17.6048 5.48709C17.0698 4.63691 16.3236 3.92921 15.3705 3.35936C14.4174 2.78952 13.2755 2.36673 11.9538 2.0864C10.6276 1.80608 9.18004 1.66821 7.60208 1.66821H0V23.9794H5.34528V15.8408H7.06261L14.4309 23.9794H21.0754L12.4843 14.9676ZM11.3784 11.351C10.259 11.976 8.77993 12.2884 6.95022 12.2884H5.34528V5.31705H7.55712C9.18454 5.31705 10.5107 5.5744 11.5267 6.0891C12.5428 6.6038 13.0553 7.43099 13.0553 8.56608C13.0553 9.79308 12.4933 10.7214 11.3739 11.3464L11.3784 11.351Z" fill="#62BB46"/>
<path d="M80.8806 7.62855C80.467 7.54583 80.0084 7.49988 79.5004 7.49988C78.2012 7.49988 77.1672 7.76642 76.3894 8.30409C75.6117 8.84177 75.0452 9.58624 74.6901 10.5467V7.66532H69.6505V23.9794H74.8295V13.7911C74.9149 12.3711 75.7735 11.5945 76.9829 11.3417C77.2436 11.2866 77.5088 11.2728 77.7741 11.2728H80.885V7.62855H80.8806Z" fill="#1B3A66"/>
<path d="M57.0089 23.9794L48.4357 12.7617V23.9794H57.0089Z" fill="#1B3A66"/>
<path d="M57.0089 1.53943L48.4357 12.7617V1.53943H57.0089Z" fill="#1B3A66"/>
<path d="M35.0793 19.9629C34.342 20.2617 33.5058 20.496 32.5662 20.6569C31.6222 20.8177 30.6556 20.9004 29.6666 20.9004C27.9357 20.9004 26.677 20.5466 25.8858 19.8389C25.0945 19.1312 24.6764 18.1799 24.627 16.9805H35.6592C35.7851 16.599 35.8795 16.1808 35.9469 15.7259C36.0099 15.2663 36.0413 14.816 36.0413 14.3702C36.0413 13.2995 35.875 12.3344 35.5468 11.4704C35.2141 10.6111 34.7331 9.87579 34.0947 9.25999C33.4564 8.64419 32.6651 8.17086 31.7076 7.83538C30.7545 7.49991 29.6666 7.33447 28.4438 7.33447C27.0186 7.33447 25.7374 7.54127 24.609 7.95487C23.4761 8.36846 22.514 8.9475 21.7273 9.69657C20.9361 10.4456 20.3337 11.351 19.9156 12.4079C19.4975 13.4695 19.2862 14.6367 19.2862 15.9097C19.2862 17.1827 19.502 18.304 19.9336 19.3426C20.3651 20.3811 20.9945 21.2681 21.8217 22.0034C22.6489 22.7386 23.6604 23.3085 24.8563 23.7129C26.0521 24.1127 27.4277 24.3149 28.9787 24.3149C30.224 24.3149 31.4333 24.2092 32.6067 23.9978C33.5058 23.837 34.333 23.6164 35.0793 23.3406V19.9675V19.9629ZM25.6745 11.4015C26.2454 10.7443 27.0681 10.4135 28.1381 10.4135C29.208 10.4135 30.0217 10.7306 30.5072 11.3693C30.9883 12.0035 31.1681 12.8491 31.0422 13.8969H24.6674C24.7708 12.8904 25.108 12.0587 25.679 11.4015H25.6745Z" fill="#62BB46"/>
<path d="M68.8098 1.53943H62.9206L54.325 12.7617L62.9026 23.9747H68.7918L60.2097 12.7617L68.8098 1.53943Z" fill="#1B3A66"/>
<path d="M37.9564 1.54407V19.393C37.9564 19.9721 38.0373 20.5373 38.2037 21.0842C38.37 21.6311 38.6487 22.1228 39.0444 22.5594C39.44 22.9959 39.9525 23.3406 40.5908 23.5979C41.2787 23.8737 42.1418 24.0023 43.1848 23.9794V18.9565V1.54407H37.9564Z" fill="#62BB46"/>
<path d="M120.163 20.7303C119.219 20.7303 118.59 20.5097 118.275 20.0593C117.956 19.6136 117.798 19.0115 117.798 18.2487V11.2497H122.137V7.66523H117.798V3.61658H112.57V7.66523H109.621V11.2497H112.57V18.3866C112.57 19.2367 112.682 20.018 112.912 20.7303C113.141 21.4472 113.505 22.0722 114 22.6052C114.494 23.1429 115.133 23.5611 115.91 23.8598C116.688 24.1631 117.637 24.3102 118.756 24.3102C119.597 24.3102 120.437 24.2412 121.278 24.108C121.768 24.0299 122.245 23.9379 122.654 23.8368V20.4499C121.867 20.6292 121.013 20.7257 120.168 20.7257L120.163 20.7303Z" fill="#1B3A66"/>
<path d="M105.143 4.4025C105.701 3.90159 106.568 3.64884 107.737 3.64884C107.769 3.64884 108.83 3.64884 109.293 3.64884V0.211394C109.028 0.156247 108.758 0.110292 108.484 0.0827193C107.913 0.0275731 107.333 0 106.748 0C104.429 0 102.567 0.579035 101.169 1.72332C99.7711 2.8722 99.0743 4.66445 99.0743 7.10007V7.66991H96.831V11.2498H99.0743V23.9794H104.303V11.2498H107.683V7.66991H104.303V6.89787C104.303 5.7352 104.581 4.90341 105.143 4.4025Z" fill="#1B3A66"/>
<path d="M95.0417 11.0706C93.9403 8.69013 92.0072 7.66992 89.5121 7.66992H82.8091V11.2728H87.615C87.8892 11.2728 88.1679 11.2866 88.4377 11.3463C89.6964 11.6129 90.5731 12.4584 90.5731 14.0255V14.77C89.9122 14.793 89.1749 14.8159 88.3612 14.8343C87.5475 14.8573 86.7563 14.8895 85.992 14.9354C84.0095 15.0503 82.4405 15.4961 81.2986 16.2773C80.1522 17.0586 79.5813 18.1982 79.5813 19.6918C79.5813 20.3627 79.7072 20.9785 79.9634 21.5346C80.2197 22.0952 80.5748 22.5778 81.0334 22.9914C81.4919 23.405 82.0494 23.7266 82.7147 23.961C83.3756 24.1954 84.1129 24.3103 84.9266 24.3103C86.1988 24.3103 87.3182 24.1081 88.2848 23.7083C89.2514 23.3085 90.0785 22.8167 90.7664 22.2377V23.9794H95.806V14.7148C95.797 13.304 95.5677 12.2103 95.0417 11.0706ZM90.5776 20.0273C90.092 20.3627 89.5346 20.6431 88.8962 20.8636C88.2578 21.0888 87.5745 21.1991 86.8327 21.1991C86.1719 21.1991 85.6414 21.0658 85.2503 20.7993C84.8547 20.5328 84.6613 20.1284 84.6613 19.5953C84.6613 18.9933 84.8906 18.5613 85.3447 18.3039C85.8032 18.0466 86.4146 17.8628 87.1789 17.7525C87.6869 17.6881 88.2443 17.633 88.8557 17.587C89.4671 17.5411 90.0426 17.4997 90.5731 17.4538V20.0319L90.5776 20.0273Z" fill="#1B3A66"/>
<path d="M123.067 0.555987H122.119V0.0964355H124.542V0.560582H123.593V3.05595H123.067V0.555987Z" fill="#1B3A66"/>
<path d="M125.059 0.0964355H125.621L126.187 1.55781C126.255 1.73244 126.336 1.98979 126.336 1.98979H126.345C126.345 1.98979 126.421 1.73244 126.489 1.55781L127.055 0.0964355H127.617L127.851 3.05135H127.329L127.208 1.39697C127.194 1.19936 127.208 0.937415 127.208 0.937415H127.199C127.199 0.937415 127.113 1.22693 127.046 1.39697L126.578 2.54125H126.12L125.657 1.39697C125.589 1.22693 125.499 0.932819 125.499 0.932819H125.491C125.491 0.932819 125.5 1.19936 125.491 1.39697L125.369 3.05135H124.843L125.081 0.0964355H125.059Z" fill="#1B3A66"/>
</svg>
