<svg width="119" height="29" viewBox="0 0 119 29" fill="none" xmlns="http://www.w3.org/2000/svg">
<path d="M24.9456 26.9395C23.8774 27.6956 22.4717 27.8098 21.3831 27.3176C21.3831 27.3176 21.0862 27.2034 20.8097 26.9014C20.5711 26.6172 14.5524 20.1341 14.5524 20.1341L14.5321 20.1138C16.3946 20.4361 18.4321 19.5861 19.4826 18.0357C20.5306 16.5615 20.4925 14.463 19.5029 12.9888C18.3154 11.3826 15.9987 10.8523 14.0576 11.0984C10.693 11.5526 8.27739 14.4072 7.52378 17.3937C6.74987 20.7964 7.30556 24.0088 8.51337 27.0334C8.78995 27.6753 9.16549 28.3376 9.62222 28.9034C6.07746 27.4292 2.94883 24.7091 1.30713 21.0603C-0.514735 17.1299 -0.474138 12.1591 1.68266 8.17025C3.38526 5.08983 6.39463 2.23525 10.117 1.0249C14.017 -0.505157 19.2644 -0.185444 23.0654 1.85717C27.6784 4.0495 31.1623 9.51254 31.1826 14.3894C31.3399 19.4364 29.003 24.0088 24.9456 26.9395Z" fill="#BFA161"/>
<path d="M12.0069 28.8483C10.284 27.0722 8.8986 24.7656 9.94909 22.3653C10.8803 20.5307 11.7101 18.6606 12.1059 16.5444C12.2632 18.7571 13.6715 20.721 14.3439 22.8398C14.6002 23.8598 14.6205 24.9179 14.2069 25.976C13.7527 27.128 13.0194 28.1125 12.1465 29.0006L12.0069 28.8509L12.0069 28.8483Z" fill="#BFA161"/>
<path d="M50.1554 15.6827L45.9763 15.6827C45.0512 14.295 44.214 13.097 43.4623 12.0887C42.7153 11.0803 41.9058 10.0396 41.0316 8.96649L39.4451 8.96649L39.4451 13.6683C39.4451 13.9111 39.4867 14.1239 39.5654 14.3089C39.644 14.4893 39.8151 14.6327 40.0811 14.7298C40.2129 14.7807 40.4396 14.827 40.768 14.8663C41.0964 14.9079 41.3739 14.9334 41.6006 14.9403L41.6006 15.6827L35.0347 15.6827L35.0347 14.9403C35.2105 14.9264 35.4649 14.901 35.7979 14.8663C36.1309 14.8339 36.3622 14.7877 36.4917 14.7298C36.7091 14.6396 36.8687 14.5101 36.9658 14.3344C37.0653 14.1586 37.1162 13.9389 37.1162 13.6683L37.1162 2.95105C37.1162 2.7059 37.0792 2.49082 37.0028 2.30349C36.9335 2.11385 36.76 1.97277 36.4917 1.87563C36.309 1.81088 36.0708 1.75537 35.7794 1.70449C35.488 1.6513 35.2405 1.61892 35.0347 1.60505L35.0347 0.862655L42.2019 0.862654C42.8587 0.862654 43.4762 0.927411 44.0498 1.05461C44.6233 1.18412 45.1483 1.38996 45.6155 1.67442C46.0665 1.95195 46.4296 2.31737 46.6978 2.76604C46.9661 3.21471 47.1049 3.75589 47.1049 4.39189C47.1049 4.96314 47.0124 5.46963 46.8297 5.90673C46.647 6.34616 46.3787 6.72313 46.0225 7.04461C45.6941 7.34295 45.2986 7.60429 44.8384 7.82168C44.3782 8.04371 43.8717 8.22873 43.3189 8.38137C44.0844 9.35041 44.7181 10.1645 45.2269 10.8282C45.7357 11.4874 46.3532 12.2922 47.0933 13.2381C47.4148 13.659 47.7016 13.9643 47.9652 14.1655C48.2219 14.3621 48.481 14.5263 48.7331 14.6512C48.9227 14.7414 49.1586 14.8131 49.4454 14.8617C49.7298 14.9079 49.9657 14.938 50.1554 14.9426L50.1554 15.685L50.1554 15.6827ZM44.4013 4.63011C44.4013 3.73276 44.133 3.02275 43.5918 2.49544C43.053 1.97045 42.2875 1.70681 41.3068 1.70681L39.4474 1.70681L39.4474 8.06684L40.8813 8.06684C41.885 8.06684 42.7269 7.76155 43.3953 7.14405C44.0683 6.52886 44.4036 5.68934 44.4036 4.63011L44.4013 4.63011ZM60.0562 13.2589C59.6052 14.0823 58.9993 14.7345 58.2407 15.2224C57.4822 15.7104 56.6079 15.9533 55.625 15.9533C54.7554 15.9533 53.9969 15.8076 53.3447 15.5139C52.6902 15.2225 52.1536 14.8247 51.7304 14.3228C51.3094 13.8232 50.9903 13.2358 50.7821 12.5674C50.5763 11.8967 50.4722 11.1913 50.4722 10.4466C50.4722 9.78057 50.5832 9.12376 50.8053 8.47851C51.0296 7.83325 51.3534 7.25506 51.7882 6.73932C52.2022 6.24671 52.7179 5.8466 53.3331 5.54595C53.9483 5.24298 54.6398 5.09034 55.4053 5.09034C56.1708 5.09034 56.8693 5.20829 57.429 5.4465C57.9933 5.6824 58.4489 6.00618 58.7958 6.41554C59.1311 6.80871 59.3809 7.26663 59.5451 7.79625C59.7093 8.32818 59.7926 8.90174 59.7926 9.51924L59.7926 10.2107L52.6485 10.2107C52.6485 10.8838 52.7156 11.4989 52.8497 12.0471C52.9839 12.5998 53.1966 13.0809 53.4927 13.5018C53.7771 13.9042 54.1472 14.221 54.6051 14.4569C55.0653 14.6882 55.6135 14.8062 56.2495 14.8062C56.8855 14.8062 57.459 14.6605 57.9285 14.3714C58.3957 14.0823 58.8513 13.5619 59.2884 12.8103L60.0539 13.2589L60.0562 13.2589ZM57.6394 9.33422C57.6394 8.94336 57.607 8.52476 57.5353 8.0784C57.4636 7.63204 57.355 7.262 57.2023 6.96366C57.0335 6.64219 56.8022 6.38316 56.5108 6.17964C56.2194 5.97612 55.8424 5.87667 55.3845 5.87667C54.619 5.87667 53.983 6.17964 53.4765 6.7902C52.97 7.40077 52.6971 8.24954 52.6508 9.33653L57.6394 9.33653L57.6394 9.33422ZM66.1549 15.685L61.0738 15.685L61.0738 15.0212C61.2357 15.0074 61.4092 14.9912 61.5942 14.9727C61.7792 14.9588 61.9295 14.931 62.0475 14.8964C62.2464 14.8385 62.3921 14.7298 62.4915 14.5795C62.5887 14.4269 62.6419 14.2303 62.6396 13.9898L62.473 2.99037C62.473 2.86548 62.4152 2.50701 62.3458 2.25955C62.3158 2.14853 62.2811 2.05834 62.2487 2.02365C62.214 1.98664 62.2025 1.94964 62.1562 1.90801C61.9735 1.75306 62.2001 1.96814 62.029 1.82475C61.9157 1.72993 62.0753 1.78774 61.7376 1.72299C61.4022 1.65592 60.8426 1.80394 60.6367 1.79006L60.6182 1.06617L64.4065 0.86959L64.5869 1.0176L64.6008 13.8718C64.6008 14.1054 64.6447 14.2974 64.7372 14.45C64.8274 14.6003 64.9754 14.7183 65.1813 14.7969C65.3362 14.8663 65.4865 14.9149 65.6392 14.9472C65.7918 14.9819 65.963 15.0051 66.1526 15.0189L66.1526 15.6827L66.1549 15.685ZM72.6838 15.685L67.5102 15.685L67.5102 15.0027C67.6767 14.9889 67.8455 14.975 68.0236 14.9611C68.2017 14.9472 68.3543 14.9195 68.4839 14.8755C68.6874 14.8154 68.84 14.7067 68.9348 14.5518C69.032 14.3968 69.0829 14.1933 69.0829 13.9458L69.0829 7.63898C69.0829 7.41696 69.0273 7.21575 68.9233 7.03073C68.8192 6.84802 68.6712 6.69538 68.4815 6.5705C68.3451 6.48492 68.1485 6.41554 67.8849 6.35772C67.6258 6.29759 67.3876 6.2629 67.1702 6.24902L67.1702 5.57833L70.9469 5.34937L71.0996 5.49507L71.0996 13.8232C71.0996 14.0638 71.1481 14.265 71.243 14.4246C71.3401 14.5795 71.495 14.6998 71.7055 14.7738C71.8651 14.8385 72.02 14.8871 72.1727 14.9264C72.3253 14.9611 72.4918 14.9912 72.6792 15.0051L72.6792 15.6873L72.6838 15.685ZM71.317 1.32288C71.317 1.71605 71.1828 2.05833 70.9099 2.35205C70.6393 2.64577 70.3063 2.79379 69.9062 2.79379C69.5408 2.79379 69.217 2.65271 68.9464 2.37287C68.6758 2.09303 68.5394 1.77156 68.5394 1.4154C68.5394 1.03379 68.6758 0.705383 68.9464 0.423229C69.217 0.141075 69.5385 -3.01641e-06 69.9062 -3.04856e-06C70.3202 -3.08475e-06 70.6578 0.131825 70.9215 0.395477C71.1851 0.663755 71.317 0.97135 71.317 1.3252L71.317 1.32288ZM84.222 15.4977C83.8774 15.6156 83.5791 15.7104 83.3224 15.7868C83.0611 15.8585 82.7696 15.8978 82.4412 15.8978C81.87 15.8978 81.419 15.7683 81.0767 15.5162C80.7367 15.2595 80.5217 14.8894 80.4268 14.4037L80.3598 14.4037C79.8857 14.9033 79.3769 15.2872 78.831 15.5509C78.2899 15.8145 77.6354 15.9463 76.8698 15.9463C76.0604 15.9463 75.3943 15.7104 74.8716 15.2363C74.349 14.7622 74.0876 14.1424 74.0876 13.3792C74.0876 12.9791 74.1478 12.6276 74.2634 12.313C74.3836 11.9985 74.5548 11.7163 74.7907 11.4642C74.9734 11.2584 75.2116 11.0711 75.5123 10.9069C75.8106 10.7427 76.0951 10.6108 76.3564 10.5137C76.6848 10.3958 77.3486 10.1761 78.35 9.85458C79.3537 9.53311 80.0314 9.28565 80.3806 9.10294L80.3806 8.06915C80.3806 7.97895 80.3621 7.80549 80.3205 7.54878C80.2788 7.29206 80.1933 7.04691 80.0637 6.81795C79.918 6.55893 79.7122 6.33228 79.4439 6.14494C79.1803 5.95299 78.801 5.85585 78.313 5.85585C77.9777 5.85585 77.6677 5.90905 77.3786 6.02006C77.0919 6.12645 76.886 6.23977 76.7704 6.36003C76.7704 6.4988 76.8028 6.70232 76.8745 6.97522C76.9439 7.24581 76.9785 7.49559 76.9785 7.72686C76.9785 7.95814 76.8629 8.18941 76.6339 8.39293C76.4027 8.59645 76.0858 8.6959 75.6742 8.6959C75.3111 8.6959 75.0428 8.57101 74.8716 8.32586C74.6982 8.0784 74.6149 7.80087 74.6149 7.49559C74.6149 7.19031 74.7352 6.86884 74.9688 6.57512C75.207 6.28371 75.5146 6.02237 75.8962 5.79341C76.2246 5.59683 76.6201 5.43262 77.0872 5.29386C77.5544 5.15741 78.01 5.09034 78.4541 5.09034C79.0669 5.09034 79.6012 5.13197 80.0591 5.2106C80.5147 5.28923 80.9264 5.46269 81.2987 5.72865C81.6734 5.98537 81.9532 6.33459 82.1475 6.77632C82.3418 7.22037 82.4389 7.78931 82.4389 8.48313C82.4389 9.48223 82.4274 10.3634 82.4042 11.1312C82.3811 11.9014 82.3719 12.7432 82.3719 13.6567C82.3719 13.9273 82.4204 14.1424 82.5199 14.302C82.617 14.4639 82.7696 14.598 82.9709 14.7113C83.0819 14.7715 83.2553 14.8085 83.4889 14.8154C83.7271 14.8223 83.97 14.827 84.2174 14.827L84.2174 15.493L84.222 15.4977ZM80.406 9.98179C79.7862 10.1576 79.2404 10.3264 78.7732 10.4952C78.3061 10.664 77.8736 10.8699 77.4735 11.122C77.1081 11.3579 76.819 11.64 76.6062 11.9638C76.398 12.2853 76.2893 12.6692 76.2893 13.1155C76.2893 13.6937 76.4512 14.1216 76.7681 14.3922C77.0872 14.6628 77.4897 14.7992 77.973 14.7992C78.4934 14.7992 78.949 14.679 79.3445 14.4384C79.7376 14.2002 80.0684 13.9158 80.3366 13.5873L80.4037 9.98179L80.406 9.98179ZM97.2081 15.685L91.9235 15.685L91.9235 14.9958C92.09 14.9819 92.2773 14.9681 92.4762 14.9542C92.6774 14.9403 92.8416 14.9102 92.9781 14.8686C93.1793 14.8085 93.3319 14.6975 93.4291 14.5402C93.5285 14.3829 93.5794 14.1794 93.5794 13.9296L93.5794 8.63114C93.5794 7.90031 93.3967 7.33832 93.0382 6.94053C92.6774 6.54505 92.2357 6.34616 91.7199 6.34616C91.3314 6.34616 90.9776 6.40397 90.6561 6.5173C90.3392 6.63062 90.0525 6.77401 89.805 6.94053C89.5668 7.10011 89.3725 7.27125 89.2291 7.45858C89.088 7.6436 88.984 7.78931 88.9192 7.90032L88.9192 13.8256C88.9192 14.0615 88.9678 14.258 89.0719 14.4107C89.1736 14.5633 89.3263 14.6813 89.5321 14.7645C89.6847 14.8362 89.8489 14.8848 90.0293 14.9218C90.2097 14.9565 90.3924 14.9819 90.5821 14.9958L90.5821 15.685L85.2975 15.685L85.2975 14.9958C85.464 14.9819 85.6374 14.9681 85.8155 14.9542C85.9959 14.9403 86.1486 14.9102 86.2827 14.8686C86.4839 14.8085 86.6365 14.6975 86.736 14.5402C86.8378 14.3829 86.8863 14.1794 86.8863 13.9296L86.8863 7.56959C86.8863 7.33138 86.8331 7.11399 86.7244 6.9174C86.6204 6.71851 86.47 6.5543 86.2827 6.42941C86.1439 6.34847 85.9797 6.28602 85.7901 6.2467C85.6004 6.20739 85.3946 6.18195 85.1772 6.16807L85.1772 5.49044L88.7666 5.25917L88.9192 5.40487L88.9192 6.85496L88.9724 6.85496C89.1482 6.69075 89.3679 6.48723 89.6292 6.25596C89.8906 6.02468 90.1427 5.83041 90.3739 5.68703C90.6468 5.5182 90.9683 5.37943 91.336 5.26842C91.7107 5.15741 92.127 5.1019 92.5942 5.1019C93.628 5.1019 94.3981 5.41181 94.8977 6.02468C95.3972 6.64218 95.6447 7.4609 95.6447 8.48544L95.6447 13.8441C95.6447 14.0892 95.6909 14.2858 95.7788 14.4361C95.8644 14.5864 96.0147 14.7044 96.2275 14.7853C96.4032 14.857 96.5513 14.9033 96.6785 14.931C96.8057 14.9588 96.9837 14.9819 97.2081 14.9958L97.2081 15.685ZM103.524 15.9556C101.963 15.9556 100.742 15.4607 99.8562 14.4731C98.975 13.4856 98.5333 12.1581 98.5333 10.4952C98.5333 9.77132 98.6535 9.09369 98.8871 8.46231C99.1277 7.83093 99.4699 7.25969 99.9209 6.74395C100.351 6.25133 100.892 5.85123 101.542 5.55057C102.187 5.2476 102.897 5.09496 103.663 5.09496C104.72 5.09496 105.583 5.3378 106.244 5.82116C106.91 6.30683 107.241 6.96597 107.241 7.80086C107.241 8.15009 107.155 8.45537 106.979 8.72365C106.804 8.99424 106.517 9.12607 106.112 9.12607C105.682 9.12607 105.351 9.02199 105.111 8.81153C104.875 8.6057 104.757 8.3698 104.757 8.11309C104.757 7.79855 104.801 7.4794 104.889 7.14636C104.979 6.81564 105.027 6.5728 105.041 6.42016C104.912 6.20739 104.718 6.05937 104.456 5.98999C104.199 5.91367 103.917 5.87898 103.619 5.87898C103.272 5.87898 102.937 5.95067 102.62 6.09406C102.303 6.23745 101.995 6.5011 101.697 6.88271C101.424 7.23193 101.209 7.70373 101.04 8.29348C100.874 8.88554 100.786 9.59093 100.786 10.412C100.786 11.7094 101.089 12.764 101.69 13.585C102.291 14.4014 103.082 14.8131 104.058 14.8131C104.768 14.8131 105.36 14.6489 105.839 14.3205C106.313 13.9921 106.757 13.5041 107.164 12.8473L107.865 13.2867C107.384 14.11 106.748 14.7599 105.962 15.241C105.173 15.722 104.359 15.9602 103.522 15.9602L103.524 15.9556ZM118.293 13.2612C117.842 14.0846 117.236 14.7368 116.478 15.2248C115.719 15.7127 114.845 15.9556 113.864 15.9556C112.995 15.9556 112.236 15.8099 111.582 15.5162C110.927 15.2248 110.391 14.827 109.967 14.3251C109.547 13.8256 109.23 13.2381 109.019 12.5697C108.813 11.899 108.709 11.1937 108.709 10.449C108.709 9.78288 108.82 9.12606 109.042 8.48081C109.267 7.83556 109.59 7.25737 110.025 6.74163C110.439 6.24902 110.955 5.84891 111.573 5.54826C112.188 5.24529 112.879 5.09265 113.645 5.09265C114.41 5.09265 115.109 5.2106 115.668 5.44881C116.233 5.68471 116.688 6.00849 117.035 6.41785C117.371 6.81102 117.62 7.26894 117.785 7.79856C117.949 8.33049 118.032 8.90404 118.032 9.52154L118.032 10.2131L110.888 10.2131C110.888 10.8861 110.955 11.5012 111.089 12.0494C111.223 12.6021 111.436 13.0832 111.732 13.5041C112.017 13.9065 112.387 14.2233 112.845 14.4592C113.305 14.6905 113.853 14.8085 114.489 14.8085C115.125 14.8085 115.698 14.6628 116.17 14.3737C116.637 14.0846 117.093 13.5642 117.53 12.8126L118.296 13.2612L118.293 13.2612ZM115.877 9.33653C115.877 8.94567 115.844 8.52707 115.772 8.08071C115.701 7.63435 115.592 7.26431 115.442 6.96597C115.273 6.6445 115.042 6.38547 114.75 6.18195C114.459 5.97842 114.082 5.87898 113.622 5.87898C112.856 5.87898 112.22 6.18195 111.714 6.79251C111.205 7.40308 110.934 8.25185 110.888 9.33884L115.877 9.33884L115.877 9.33653Z" fill="black"/>
<path d="M38.0756 28.7436L35.0367 28.7436L35.0367 28.4383C35.1223 28.4313 35.2449 28.4244 35.4091 28.4128C35.5709 28.4013 35.6843 28.3851 35.7513 28.362C35.8554 28.325 35.9317 28.2741 35.9803 28.2093C36.0266 28.1446 36.0497 28.0544 36.0497 27.941L36.0497 23.5145C36.0497 23.415 36.0335 23.3294 35.9965 23.2624C35.9618 23.1953 35.8785 23.1398 35.749 23.0912C35.6542 23.0565 35.5339 23.0242 35.3906 22.9941C35.2449 22.964 35.1269 22.9478 35.0344 22.9409L35.0344 22.6356L38.0733 22.6356L38.0733 22.9409C37.9739 22.9432 37.8582 22.9548 37.7195 22.9733C37.583 22.9918 37.4651 23.0149 37.3633 23.045C37.2431 23.0797 37.1621 23.1352 37.1228 23.2115C37.0812 23.2901 37.0604 23.3757 37.0604 23.4705L37.0604 27.8925C37.0604 27.985 37.0835 28.0706 37.1274 28.1446C37.1737 28.2186 37.2523 28.2764 37.3633 28.318C37.4304 28.3411 37.5391 28.3666 37.6894 28.3943C37.8397 28.4221 37.9669 28.436 38.0733 28.4406L38.0733 28.7459L38.0756 28.7436Z" fill="black"/>
<path d="M44.2099 28.7415L41.9134 28.7415L41.9134 28.457C41.9874 28.4524 42.0683 28.4454 42.1539 28.4385C42.2418 28.4339 42.3135 28.42 42.3713 28.4038C42.4592 28.3784 42.5263 28.3344 42.5679 28.2697C42.6118 28.2049 42.6326 28.1217 42.6326 28.0176L42.6326 25.8344C42.6326 25.5337 42.554 25.3024 42.3967 25.1382C42.2395 24.9763 42.0475 24.8931 41.8232 24.8931C41.6544 24.8931 41.4994 24.9162 41.3606 24.9648C41.2219 25.011 41.097 25.0712 40.9906 25.1405C40.8865 25.2076 40.8033 25.277 40.7408 25.3533C40.6784 25.4296 40.6321 25.4898 40.6067 25.536L40.6067 27.9783C40.6067 28.0754 40.6275 28.1563 40.6738 28.2188C40.7177 28.2812 40.7848 28.3298 40.8726 28.3645C40.9397 28.3946 41.0114 28.4154 41.0877 28.4293C41.1664 28.4431 41.245 28.4547 41.3283 28.4593L41.3283 28.7438L39.0317 28.7438L39.0317 28.4593C39.1057 28.4547 39.1797 28.4478 39.256 28.4408C39.3347 28.4362 39.3994 28.4223 39.4596 28.4061C39.5475 28.3807 39.6145 28.3367 39.6561 28.272C39.7001 28.2072 39.7209 28.124 39.7209 28.0199L39.7209 25.3996C39.7209 25.3001 39.6978 25.2122 39.6515 25.1313C39.6053 25.048 39.5405 24.981 39.4596 24.9301C39.3994 24.8954 39.3277 24.8699 39.2445 24.8538C39.1612 24.8376 39.0733 24.826 38.9785 24.8214L38.9785 24.5415L40.5373 24.4467L40.6044 24.5068L40.6044 25.1058L40.6275 25.1058C40.7038 25.0388 40.801 24.9555 40.9143 24.8584C41.0276 24.7636 41.1363 24.6826 41.2357 24.6225C41.3537 24.5531 41.4948 24.4953 41.6544 24.4513C41.8162 24.4051 41.999 24.382 42.2002 24.382C42.6488 24.382 42.9842 24.5092 43.2016 24.7612C43.419 25.0156 43.5277 25.3533 43.5277 25.7742L43.5277 27.9829C43.5277 28.0847 43.5462 28.1656 43.5855 28.228C43.6225 28.2905 43.6873 28.3391 43.7798 28.3714C43.8561 28.4015 43.9208 28.42 43.9763 28.4316C44.0319 28.4431 44.1105 28.4524 44.2053 28.457L44.2053 28.7415L44.2099 28.7415Z" fill="black"/>
<path d="M50.1639 28.6636L48.5288 28.7584L48.4571 28.6983L48.4571 28.3028L48.4201 28.2959C48.2559 28.4624 48.0524 28.5988 47.8096 28.7052C47.5667 28.8116 47.3169 28.8648 47.0625 28.8648C46.8081 28.8648 46.5375 28.8093 46.2901 28.7029C46.0426 28.5965 45.8252 28.4439 45.6402 28.2496C45.4529 28.0507 45.3049 27.8125 45.1962 27.535C45.0875 27.2551 45.032 26.9499 45.032 26.6145C45.032 26.3069 45.0898 26.0178 45.2077 25.7403C45.3257 25.4651 45.4876 25.2246 45.6934 25.0164C45.8854 24.8245 46.1236 24.6718 46.4034 24.5562C46.6832 24.4405 46.97 24.385 47.2614 24.385C47.4811 24.385 47.6939 24.4105 47.9067 24.459C48.1171 24.5099 48.2999 24.5724 48.4502 24.651L48.4502 23.1755C48.4502 23.0552 48.4294 22.9442 48.3831 22.8471C48.3392 22.7476 48.2767 22.6713 48.1981 22.6204C48.1102 22.5672 47.9899 22.5279 47.8396 22.5025C47.6893 22.4793 47.5274 22.4608 47.3516 22.4493L47.3516 22.181L49.2666 22.0815L49.3383 22.1463L49.3383 27.8703C49.3383 27.9721 49.3591 28.0577 49.403 28.127C49.4447 28.1964 49.5094 28.2566 49.5904 28.3051C49.6505 28.3398 49.7361 28.3606 49.8517 28.3699C49.965 28.3768 50.0691 28.3838 50.1639 28.3884L50.1639 28.6682L50.1639 28.6636ZM48.4479 27.9166L48.4479 25.435C48.4247 25.361 48.3808 25.2801 48.3253 25.1945C48.2675 25.1066 48.1958 25.0303 48.1102 24.9586C48.02 24.8869 47.9113 24.8268 47.7864 24.7805C47.6638 24.7343 47.5181 24.7111 47.3539 24.7111C47.162 24.7111 46.9862 24.7551 46.8289 24.8453C46.6671 24.9332 46.526 25.0627 46.4034 25.2269C46.2855 25.3888 46.1929 25.5923 46.1236 25.8397C46.0565 26.0895 46.0218 26.3624 46.0218 26.6631C46.0218 26.9036 46.0472 27.1233 46.0981 27.3199C46.149 27.5165 46.2346 27.6992 46.3548 27.868C46.4659 28.0299 46.6069 28.1594 46.7827 28.2566C46.9538 28.3537 47.1597 28.4046 47.3979 28.4046C47.65 28.4046 47.8627 28.3537 48.0269 28.2519C48.1935 28.1525 48.3345 28.0415 48.4479 27.9189" fill="black"/>
<path d="M55.8727 28.6635L54.3463 28.7583L54.2746 28.6982L54.2746 28.1593L54.2468 28.1593C54.1705 28.231 54.0849 28.3097 53.9878 28.3906C53.8953 28.4715 53.7843 28.5456 53.6617 28.6126C53.5183 28.6913 53.3818 28.7491 53.2477 28.7884C53.1136 28.83 52.9262 28.8485 52.6834 28.8485C52.2671 28.8485 51.9526 28.726 51.7352 28.4808C51.5201 28.2357 51.4114 27.8772 51.4114 27.41L51.4114 25.3771C51.4114 25.273 51.3883 25.1875 51.3466 25.1181C51.305 25.0464 51.2402 24.9863 51.1593 24.9331C51.1015 24.9007 51.0321 24.8752 50.9465 24.8591C50.861 24.8429 50.7684 24.8313 50.6759 24.8267L50.6759 24.5468L52.2393 24.4451L52.311 24.5052L52.311 27.4539C52.311 27.7615 52.3874 27.9928 52.54 28.1478C52.6926 28.3027 52.8753 28.379 53.0881 28.379C53.2616 28.379 53.4165 28.3536 53.553 28.305C53.6894 28.2565 53.8028 28.1986 53.8953 28.1339C53.9808 28.0738 54.0548 28.009 54.1219 27.9419C54.1867 27.8749 54.2376 27.8101 54.2699 27.7546L54.2699 25.347C54.2699 25.2522 54.2491 25.169 54.2029 25.0949C54.1589 25.0209 54.0965 24.9585 54.0178 24.9076C53.96 24.8729 53.8768 24.8521 53.7634 24.8452C53.6524 24.8382 53.5252 24.8313 53.3842 24.8267L53.3842 24.5468L55.0863 24.4451L55.158 24.5052L55.158 27.8749C55.158 27.972 55.1812 28.0553 55.2251 28.1246C55.2713 28.194 55.3315 28.2518 55.4124 28.3004C55.4702 28.3328 55.5373 28.3536 55.6159 28.3628C55.6946 28.3698 55.7825 28.379 55.8796 28.3814L55.8796 28.6612L55.8727 28.6635Z" fill="black"/>
<path d="M59.7818 26.6634C59.9113 26.7651 60.0131 26.8854 60.0825 27.0195C60.1519 27.156 60.1865 27.3202 60.1865 27.5145C60.1865 27.9076 60.0247 28.2291 59.7009 28.4789C59.3771 28.7287 58.9539 28.8535 58.4381 28.8535C58.1652 28.8535 57.9131 28.8096 57.6842 28.7194C57.4529 28.6315 57.291 28.5483 57.1915 28.4743L57.099 28.7541L56.7429 28.7541L56.6943 27.2763L57.0227 27.2763C57.0482 27.3873 57.1013 27.5191 57.1846 27.6671C57.2656 27.8174 57.3673 27.9516 57.4829 28.0742C57.6055 28.2014 57.7559 28.3054 57.927 28.3933C58.1005 28.4789 58.2947 28.5228 58.5098 28.5228C58.8151 28.5228 59.0487 28.4604 59.2129 28.3355C59.3771 28.2106 59.458 28.0325 59.458 27.7989C59.458 27.6787 59.4326 27.5769 59.3817 27.4867C59.3285 27.3988 59.2522 27.3225 59.1504 27.2554C59.044 27.1907 58.9168 27.1306 58.7642 27.0774C58.6116 27.0242 58.4427 26.971 58.2554 26.9201C58.1051 26.8785 57.9409 26.8253 57.7582 26.7536C57.5755 26.6842 57.4205 26.6009 57.291 26.5061C57.1522 26.4067 57.0366 26.2841 56.9487 26.1384C56.8585 25.9904 56.8169 25.8192 56.8169 25.6203C56.8169 25.2734 56.9603 24.9774 57.2447 24.7369C57.5292 24.4963 57.9108 24.3761 58.3895 24.3761C58.5723 24.3761 58.7596 24.3992 58.9515 24.4408C59.1435 24.4848 59.2984 24.5357 59.421 24.5958L59.5297 24.3715L59.872 24.3715L59.9437 25.736L59.6153 25.736C59.5482 25.4307 59.4048 25.1855 59.1828 24.9936C58.9631 24.8016 58.6948 24.7068 58.378 24.7068C58.119 24.7068 57.9131 24.7646 57.7651 24.8826C57.6148 25.0005 57.5408 25.1416 57.5408 25.3081C57.5408 25.4376 57.5662 25.544 57.6148 25.6319C57.6633 25.7175 57.7374 25.7915 57.8368 25.8493C57.9316 25.9071 58.0519 25.9603 58.1953 26.0112C58.341 26.0621 58.5191 26.1176 58.7318 26.18C58.94 26.2401 59.1366 26.3118 59.3216 26.3905C59.5089 26.4714 59.6615 26.5616 59.7818 26.6588" fill="black"/>
<path d="M64.0172 28.5565C63.8114 28.6351 63.6148 28.6999 63.4321 28.7507C63.2471 28.8039 63.0227 28.8317 62.7568 28.8317C62.3636 28.8317 62.0861 28.7415 61.9288 28.5611C61.7669 28.383 61.6883 28.1286 61.6883 27.8025L61.6883 24.9278L60.8418 24.9278L60.8418 24.5138L61.7068 24.5138L61.7068 23.1932L62.5741 23.1932L62.5741 24.5138L63.9201 24.5138L63.9201 24.9278L62.5833 24.9278L62.5833 27.3007C62.5833 27.4787 62.5903 27.6268 62.6064 27.7447C62.6203 27.8627 62.655 27.9667 62.7082 28.0569C62.7591 28.1402 62.8354 28.2049 62.9349 28.2466C63.0366 28.2905 63.1731 28.3113 63.3442 28.3113C63.4228 28.3113 63.5408 28.3067 63.6934 28.2928C63.8484 28.2789 63.9571 28.2628 64.0195 28.2419L64.0195 28.5565L64.0172 28.5565Z" fill="black"/>
<path d="M68.3079 25.0436C68.3079 25.1893 68.2685 25.3188 68.1899 25.4344C68.109 25.5477 67.9887 25.6032 67.8222 25.6032C67.6441 25.6032 67.51 25.5616 67.4174 25.4784C67.3226 25.3951 67.2764 25.3026 67.2764 25.2031C67.2764 25.1407 67.2833 25.0829 67.2926 25.032C67.3041 24.9788 67.3157 24.9279 67.3226 24.877C67.1746 24.877 66.9988 24.9302 66.7999 25.0413C66.6011 25.1523 66.4322 25.3049 66.2911 25.5061L66.2911 27.9784C66.2911 28.0779 66.312 28.1611 66.3559 28.2236C66.3998 28.286 66.4669 28.3346 66.5594 28.3647C66.6381 28.3947 66.7398 28.4155 66.867 28.4294C66.9919 28.4433 67.1006 28.4549 67.1908 28.4595L67.1908 28.7439L64.7185 28.7439L64.7185 28.4595C64.7925 28.4549 64.8665 28.4479 64.9451 28.441C65.0238 28.4363 65.0885 28.4225 65.1487 28.4063C65.2365 28.3808 65.3036 28.3369 65.3452 28.2721C65.3892 28.2074 65.41 28.1241 65.41 28.0201L65.41 25.3997C65.41 25.3095 65.3869 25.224 65.3406 25.1361C65.2944 25.0505 65.2296 24.9811 65.1487 24.9302C65.0885 24.8955 65.0168 24.8701 64.9336 24.8539C64.8526 24.8377 64.7624 24.8262 64.6676 24.8215L64.6676 24.5417L66.2264 24.4469L66.2935 24.507L66.2935 25.106L66.3166 25.106C66.5132 24.8747 66.7329 24.6967 66.9734 24.5764C67.2139 24.4561 67.4336 24.396 67.6348 24.396C67.8361 24.396 67.9956 24.4538 68.1228 24.5718C68.2477 24.6897 68.3102 24.8493 68.3102 25.0459" fill="black"/>
<path d="M71.2197 28.7426L68.9532 28.7426L68.9532 28.4582C69.0272 28.4536 69.1012 28.4466 69.1776 28.4397C69.2562 28.4351 69.3209 28.4212 69.3788 28.405C69.469 28.3795 69.536 28.3356 69.5777 28.2708C69.6193 28.2061 69.6424 28.1228 69.6424 28.0188L69.6424 25.3984C69.6424 25.3059 69.6193 25.2227 69.573 25.1463C69.5268 25.07 69.462 25.0076 69.3788 24.9544C69.3186 24.9197 69.2331 24.8896 69.1174 24.8665C69.0041 24.8411 68.9 24.8272 68.8029 24.8202L68.8029 24.5404L70.4588 24.4456L70.5259 24.5057L70.5259 27.9679C70.5259 28.0673 70.5467 28.1529 70.5883 28.2177C70.63 28.2824 70.6993 28.331 70.7918 28.3634C70.8612 28.3888 70.9306 28.4096 70.9954 28.4258C71.0624 28.4397 71.1341 28.4536 71.2174 28.4582L71.2174 28.7426L71.2197 28.7426ZM70.6207 22.7735C70.6207 22.9354 70.5629 23.0787 70.4426 23.2013C70.3247 23.3239 70.179 23.3863 70.0032 23.3863C69.8436 23.3863 69.7025 23.3262 69.5823 23.2106C69.4643 23.0949 69.4042 22.9608 69.4042 22.8128C69.4042 22.6555 69.4643 22.5167 69.5823 22.4011C69.7002 22.2832 69.8413 22.2253 70.0032 22.2253C70.1859 22.2253 70.3339 22.2809 70.4472 22.3896C70.5629 22.5006 70.6207 22.6278 70.6207 22.7758" fill="black"/>
<path d="M76.1946 27.7423C75.998 28.0823 75.7367 28.3506 75.4059 28.5518C75.0752 28.753 74.6959 28.8525 74.2704 28.8525C73.8911 28.8525 73.5627 28.7923 73.2782 28.6721C72.9937 28.5518 72.7602 28.3876 72.5775 28.1818C72.3947 27.9759 72.256 27.7331 72.1658 27.4579C72.0756 27.1827 72.0316 26.8913 72.0316 26.5837C72.0316 26.3085 72.0802 26.0379 72.175 25.7719C72.2722 25.5059 72.4132 25.2677 72.6006 25.0549C72.781 24.8514 73.0053 24.6872 73.2713 24.5623C73.5396 24.4374 73.8402 24.375 74.1732 24.375C74.5063 24.375 74.8092 24.4236 75.0521 24.5207C75.2972 24.6178 75.4938 24.752 75.6465 24.9208C75.7922 25.0827 75.9009 25.2723 75.9726 25.4897C76.0442 25.7071 76.0789 25.9454 76.0789 26.1998L76.0789 26.4842L72.9752 26.4842C72.9752 26.7617 73.0053 27.0138 73.0631 27.2405C73.1209 27.4671 73.2135 27.666 73.343 27.8395C73.4655 28.006 73.6274 28.1355 73.8263 28.2326C74.0252 28.3275 74.2634 28.376 74.541 28.376C74.8185 28.376 75.066 28.3159 75.2695 28.198C75.473 28.08 75.6719 27.8649 75.8615 27.555L76.1946 27.74L76.1946 27.7423ZM75.1446 26.1234C75.1446 25.9615 75.1307 25.7904 75.1007 25.6054C75.0706 25.4227 75.022 25.2677 74.9573 25.1451C74.8833 25.0133 74.7838 24.9069 74.6566 24.8214C74.5294 24.7381 74.3652 24.6965 74.1663 24.6965C73.8333 24.6965 73.5581 24.8214 73.3383 25.0735C73.1186 25.3232 72.9984 25.6748 72.9799 26.1211L75.1469 26.1211L75.1446 26.1234Z" fill="black"/>
<path d="M80.0717 26.6634C80.2012 26.7651 80.303 26.8854 80.3724 27.0195C80.4418 27.156 80.4764 27.3202 80.4764 27.5145C80.4764 27.9076 80.3146 28.2291 79.9885 28.4789C79.6647 28.7287 79.2414 28.8535 78.7257 28.8535C78.4528 28.8535 78.2007 28.8096 77.9717 28.7194C77.7428 28.6315 77.5786 28.5483 77.4791 28.4743L77.3843 28.7541L77.0281 28.7541L76.9796 27.2763L77.308 27.2763C77.3334 27.3873 77.3889 27.5191 77.4699 27.6671C77.5508 27.8174 77.6503 27.9516 77.7682 28.0742C77.8908 28.2014 78.0411 28.3054 78.2123 28.3933C78.3857 28.4789 78.58 28.5228 78.7951 28.5228C79.1004 28.5228 79.334 28.4604 79.4982 28.3355C79.6624 28.2106 79.7456 28.0325 79.7456 27.7989C79.7456 27.6787 79.7202 27.5769 79.667 27.4867C79.6138 27.3988 79.5375 27.3225 79.4357 27.2554C79.3293 27.1907 79.2021 27.1306 79.0495 27.0774C78.8968 27.0242 78.728 26.971 78.543 26.9201C78.3927 26.8785 78.2285 26.8253 78.0458 26.7536C77.8631 26.6842 77.7058 26.6009 77.5763 26.5061C77.4375 26.4067 77.3242 26.2841 77.234 26.1384C77.1438 25.9904 77.0998 25.8192 77.0998 25.6203C77.0998 25.2734 77.2432 24.9774 77.5277 24.7369C77.8122 24.4963 78.1938 24.3761 78.6725 24.3761C78.8552 24.3761 79.0449 24.3992 79.2368 24.4408C79.4288 24.4848 79.5837 24.5357 79.7063 24.5958L79.815 24.3715L80.1573 24.3715L80.229 25.736L79.9006 25.736C79.8335 25.4307 79.6901 25.1855 79.4681 24.9936C79.2484 24.8016 78.9801 24.7068 78.6633 24.7068C78.4042 24.7068 78.1984 24.7646 78.0504 24.8826C77.9001 25.0005 77.826 25.1416 77.826 25.3081C77.826 25.4376 77.8515 25.544 77.9001 25.6319C77.9486 25.7175 78.0226 25.7915 78.1198 25.8493C78.2146 25.9071 78.3348 25.9603 78.4782 26.0112C78.6216 26.0621 78.802 26.1176 79.0148 26.18C79.2253 26.2401 79.4195 26.3118 79.6045 26.3905C79.7919 26.4714 79.9445 26.5616 80.0625 26.6588" fill="black"/>
<path d="M89.0643 26.9245L88.9209 28.74L83.6502 28.74L83.6502 28.4347C83.7265 28.4278 83.8375 28.4186 83.9809 28.4047C84.1243 28.3908 84.2261 28.3723 84.2839 28.3492C84.3787 28.3122 84.4481 28.259 84.4897 28.185C84.5336 28.1133 84.5545 28.0231 84.5545 27.9098L84.5545 23.5364C84.5545 23.4392 84.536 23.3537 84.499 23.2773C84.4643 23.201 84.3903 23.1409 84.2839 23.0969C84.2099 23.0623 84.1081 23.0299 83.9763 22.9952C83.8444 22.9628 83.7357 22.9443 83.6502 22.9374L83.6502 22.6321L86.4972 22.6321L86.4972 22.9374C86.4093 22.9397 86.2936 22.9536 86.1526 22.9813C86.0115 23.0067 85.9097 23.0299 85.845 23.0507C85.7363 23.0854 85.6623 23.1432 85.6229 23.2265C85.5836 23.3097 85.5651 23.3976 85.5651 23.4947L85.5651 27.5975C85.5651 27.7872 85.5744 27.9329 85.5952 28.0393C85.616 28.1433 85.6623 28.2243 85.7386 28.2844C85.8126 28.3353 85.919 28.37 86.0647 28.3839C86.2081 28.4001 86.4093 28.407 86.6706 28.407C86.7886 28.407 86.9111 28.407 87.0383 28.4001C87.1655 28.3931 87.2858 28.3816 87.3991 28.3654C87.5078 28.3469 87.6119 28.3237 87.7044 28.2937C87.7969 28.2636 87.8663 28.2243 87.9102 28.178C88.0398 28.0462 88.1901 27.8473 88.3659 27.579C88.537 27.3108 88.6573 27.0934 88.7243 26.9268L89.062 26.9268L89.0643 26.9245Z" fill="black"/>
<path d="M91.9173 28.7426L89.6509 28.7426L89.6509 28.4582C89.7226 28.4536 89.7989 28.4466 89.8752 28.4397C89.9538 28.4351 90.0209 28.4212 90.0764 28.405C90.1666 28.3795 90.2313 28.3356 90.273 28.2708C90.3146 28.2061 90.3377 28.1228 90.3377 28.0188L90.3377 25.3984C90.3377 25.3059 90.3146 25.2227 90.2684 25.1463C90.2244 25.07 90.1573 25.0076 90.0764 24.9544C90.0163 24.9197 89.9307 24.8896 89.8151 24.8665C89.7017 24.8411 89.5977 24.8272 89.5028 24.8202L89.5028 24.5404L91.1588 24.4456L91.2258 24.5057L91.2258 27.9679C91.2258 28.0673 91.2466 28.1529 91.2883 28.2177C91.3299 28.2824 91.3993 28.331 91.4918 28.3634C91.5612 28.3888 91.6306 28.4096 91.6953 28.4258C91.7624 28.4397 91.8341 28.4536 91.9173 28.4582L91.9173 28.7426ZM91.3183 22.7735C91.3183 22.9354 91.2605 23.0787 91.1403 23.2013C91.0223 23.3239 90.8766 23.3863 90.7008 23.3863C90.5389 23.3863 90.3979 23.3262 90.2799 23.2106C90.162 23.0949 90.1018 22.9608 90.1018 22.8128C90.1018 22.6555 90.162 22.5167 90.2799 22.4011C90.3979 22.2832 90.5389 22.2253 90.7008 22.2253C90.8835 22.2253 91.0292 22.2809 91.1449 22.3896C91.2605 22.5006 91.3183 22.6278 91.3183 22.7758" fill="black"/>
<path d="M100.753 28.7438L98.4658 28.7438L98.4658 28.4593C98.5398 28.4547 98.6115 28.4478 98.6855 28.4408C98.7595 28.4362 98.8266 28.4223 98.8844 28.4061C98.9746 28.3807 99.0394 28.3367 99.081 28.272C99.125 28.2072 99.1458 28.124 99.1458 28.0199L99.1458 25.8297C99.1458 25.5291 99.0718 25.3001 98.9214 25.1382C98.7711 24.9763 98.5815 24.8954 98.3571 24.8954C98.2022 24.8954 98.0565 24.9185 97.92 24.9601C97.7836 25.0018 97.6587 25.0642 97.5454 25.1405C97.4528 25.203 97.3765 25.2724 97.3164 25.3441C97.2516 25.4181 97.2077 25.4782 97.1753 25.5291L97.1753 27.9783C97.1753 28.0777 97.1961 28.161 97.2331 28.2257C97.2724 28.2905 97.3372 28.3414 97.4274 28.3737C97.5014 28.3992 97.5662 28.42 97.624 28.4316C97.6818 28.4431 97.7581 28.4547 97.8553 28.4593L97.8553 28.7438L95.6165 28.7438L95.6165 28.4593C95.6905 28.4547 95.7599 28.4478 95.8293 28.4408C95.8964 28.4362 95.9588 28.4223 96.0166 28.4061C96.1068 28.3807 96.1716 28.3367 96.2155 28.272C96.2572 28.2072 96.278 28.124 96.278 28.0199L96.278 25.8297C96.278 25.5291 96.204 25.3001 96.0513 25.1382C95.901 24.9763 95.7137 24.8954 95.4893 24.8954C95.3321 24.8954 95.1887 24.9185 95.0522 24.9625C94.9158 25.0087 94.7886 25.0688 94.6752 25.1452C94.5827 25.2076 94.5064 25.2793 94.444 25.3579C94.3815 25.4366 94.333 25.4967 94.3006 25.536L94.3006 27.969C94.3006 28.0662 94.3214 28.1494 94.3676 28.2142C94.4116 28.2812 94.4763 28.3298 94.5665 28.3645C94.6336 28.3946 94.7007 28.4154 94.7701 28.4293C94.8394 28.4431 94.9181 28.4547 95.0036 28.4593L95.0036 28.7438L92.7279 28.7438L92.7279 28.4593C92.8019 28.4547 92.8759 28.4478 92.9523 28.4408C93.0309 28.4362 93.0956 28.4223 93.1558 28.4061C93.2437 28.3807 93.3107 28.3367 93.3524 28.272C93.3963 28.2072 93.4171 28.124 93.4171 28.0199L93.4171 25.3811C93.4171 25.2886 93.394 25.2076 93.3477 25.1336C93.3015 25.0619 93.2367 24.9995 93.1558 24.9463C93.0956 24.9139 93.0216 24.8838 92.9314 24.863C92.8412 24.8399 92.751 24.8283 92.6562 24.8214L92.6562 24.5415L94.2243 24.4467L94.2913 24.5068L94.2913 25.1128L94.3237 25.1128C94.4046 25.0411 94.5018 24.9555 94.6151 24.8584C94.7284 24.7612 94.8348 24.6826 94.9343 24.6225C95.0453 24.5531 95.184 24.4953 95.3506 24.4513C95.5148 24.4051 95.6952 24.382 95.8894 24.382C96.1947 24.382 96.456 24.456 96.6734 24.604C96.8908 24.752 97.0481 24.9301 97.1452 25.1405C97.2586 25.0388 97.358 24.9509 97.4459 24.8769C97.5315 24.8006 97.6471 24.7196 97.7905 24.6317C97.9108 24.5577 98.0542 24.4953 98.216 24.4513C98.3803 24.4051 98.5606 24.382 98.7619 24.382C99.1573 24.382 99.4719 24.4999 99.7031 24.7335C99.9344 24.9694 100.05 25.3302 100.05 25.8182L100.05 27.9736C100.05 28.0731 100.069 28.1563 100.108 28.2211C100.145 28.2859 100.21 28.3367 100.302 28.3691C100.376 28.3946 100.446 28.4154 100.517 28.4269C100.589 28.4385 100.67 28.4501 100.758 28.4547L100.758 28.7392L100.753 28.7438Z" fill="black"/>
<path d="M103.812 28.7426L101.546 28.7426L101.546 28.4582C101.62 28.4536 101.694 28.4466 101.773 28.4397C101.851 28.4351 101.916 28.4212 101.974 28.405C102.064 28.3795 102.129 28.3356 102.17 28.2708C102.212 28.2061 102.235 28.1228 102.235 28.0188L102.235 25.3984C102.235 25.3059 102.212 25.2227 102.166 25.1463C102.119 25.07 102.057 25.0076 101.974 24.9544C101.914 24.9197 101.828 24.8896 101.712 24.8665C101.599 24.8411 101.495 24.8272 101.4 24.8202L101.4 24.5404L103.056 24.4456L103.123 24.5057L103.123 27.9679C103.123 28.0673 103.144 28.1529 103.186 28.2177C103.227 28.2824 103.297 28.331 103.389 28.3634C103.458 28.3888 103.526 28.4096 103.595 28.4258C103.662 28.4397 103.734 28.4536 103.817 28.4582L103.817 28.7426L103.812 28.7426ZM103.213 22.7735C103.213 22.9354 103.156 23.0787 103.035 23.2013C102.917 23.3239 102.772 23.3863 102.596 23.3863C102.436 23.3863 102.295 23.3262 102.175 23.2106C102.057 23.0949 101.997 22.9608 101.997 22.8128C101.997 22.6555 102.057 22.5167 102.175 22.4011C102.293 22.2832 102.434 22.2253 102.596 22.2253C102.779 22.2253 102.924 22.2809 103.04 22.3896C103.156 22.5006 103.213 22.6278 103.213 22.7758" fill="black"/>
<path d="M107.512 28.5565C107.306 28.6351 107.112 28.6999 106.929 28.7507C106.744 28.8039 106.52 28.8317 106.254 28.8317C105.861 28.8317 105.583 28.7415 105.426 28.5611C105.266 28.383 105.185 28.1286 105.185 27.8025L105.185 24.9278L104.339 24.9278L104.339 24.5138L105.204 24.5138L105.204 23.1932L106.071 23.1932L106.071 24.5138L107.417 24.5138L107.417 24.9278L106.08 24.9278L106.08 27.3007C106.08 27.4787 106.087 27.6268 106.103 27.7447C106.117 27.8627 106.15 27.9667 106.205 28.0569C106.256 28.1402 106.332 28.2049 106.432 28.2466C106.534 28.2905 106.67 28.3113 106.841 28.3113C106.92 28.3113 107.038 28.3067 107.19 28.2928C107.345 28.2789 107.454 28.2628 107.516 28.2419L107.516 28.5565L107.512 28.5565Z" fill="black"/>
<path d="M112.38 27.7423C112.184 28.0823 111.92 28.3506 111.592 28.5518C111.263 28.753 110.882 28.8525 110.456 28.8525C110.077 28.8525 109.748 28.7923 109.466 28.6721C109.182 28.5518 108.948 28.3876 108.766 28.1818C108.583 27.9759 108.444 27.7331 108.354 27.4579C108.266 27.1827 108.22 26.8913 108.22 26.5837C108.22 26.3085 108.268 26.0379 108.363 25.7719C108.46 25.5059 108.601 25.2677 108.791 25.0549C108.971 24.8514 109.196 24.6872 109.464 24.5623C109.732 24.4374 110.031 24.375 110.364 24.375C110.697 24.375 111 24.4236 111.242 24.5207C111.488 24.6178 111.687 24.752 111.837 24.9208C111.983 25.0827 112.091 25.2723 112.163 25.4897C112.235 25.7071 112.269 25.9454 112.269 26.1998L112.269 26.4842L109.166 26.4842C109.166 26.7617 109.196 27.0138 109.254 27.2405C109.311 27.4671 109.404 27.666 109.533 27.8395C109.656 28.006 109.818 28.1355 110.017 28.2326C110.216 28.3275 110.456 28.376 110.731 28.376C111.007 28.376 111.259 28.3159 111.462 28.198C111.666 28.08 111.862 27.8649 112.052 27.555L112.385 27.74L112.38 27.7423ZM111.33 26.1234C111.33 25.9615 111.316 25.7904 111.284 25.6054C111.254 25.4227 111.205 25.2677 111.141 25.1451C111.067 25.0133 110.967 24.9069 110.84 24.8214C110.713 24.7381 110.549 24.6965 110.35 24.6965C110.017 24.6965 109.742 24.8214 109.519 25.0735C109.3 25.3232 109.182 25.6748 109.161 26.1211L111.33 26.1211L111.33 26.1234Z" fill="black"/>
<path d="M118.296 28.6636L116.661 28.7584L116.589 28.6983L116.589 28.3028L116.552 28.2959C116.386 28.4624 116.185 28.5988 115.939 28.7052C115.697 28.8116 115.447 28.8648 115.192 28.8648C114.938 28.8648 114.667 28.8093 114.42 28.7029C114.173 28.5965 113.955 28.4439 113.772 28.2496C113.585 28.0507 113.437 27.8125 113.328 27.535C113.22 27.2551 113.164 26.9499 113.164 26.6145C113.164 26.3069 113.222 26.0178 113.34 25.7403C113.458 25.4651 113.62 25.2246 113.826 25.0164C114.018 24.8245 114.256 24.6718 114.536 24.5562C114.815 24.4405 115.102 24.385 115.394 24.385C115.613 24.385 115.826 24.4105 116.037 24.459C116.247 24.5099 116.43 24.5724 116.58 24.651L116.58 23.1755C116.58 23.0552 116.559 22.9442 116.513 22.8471C116.469 22.7476 116.407 22.6713 116.328 22.6204C116.238 22.5672 116.12 22.5279 115.97 22.5025C115.819 22.4793 115.657 22.4608 115.484 22.4493L115.484 22.181L117.399 22.0815L117.471 22.1463L117.471 27.8703C117.471 27.9721 117.491 28.0577 117.535 28.127C117.577 28.1964 117.639 28.2566 117.723 28.3051C117.783 28.3398 117.868 28.3606 117.984 28.3699C118.097 28.3768 118.201 28.3838 118.296 28.3884L118.296 28.6682L118.296 28.6636ZM116.58 27.9166L116.58 25.435C116.557 25.361 116.513 25.2801 116.458 25.1945C116.4 25.1066 116.33 25.0303 116.242 24.9586C116.152 24.8869 116.044 24.8268 115.919 24.7805C115.796 24.7343 115.65 24.7111 115.486 24.7111C115.294 24.7111 115.121 24.7551 114.961 24.8453C114.799 24.9332 114.658 25.0627 114.536 25.2269C114.418 25.3888 114.325 25.5923 114.256 25.8397C114.189 26.0895 114.154 26.3624 114.154 26.6631C114.154 26.9036 114.179 27.1233 114.23 27.3199C114.281 27.5165 114.367 27.6992 114.487 27.868C114.6 28.0299 114.741 28.1594 114.915 28.2566C115.086 28.3537 115.292 28.4046 115.53 28.4046C115.782 28.4046 115.995 28.3537 116.159 28.2519C116.326 28.1525 116.467 28.0415 116.58 27.9189" fill="black"/>
</svg>
